<svg width="216" height="175" viewBox="0 0 216 175" fill="none" xmlns="http://www.w3.org/2000/svg">
<path d="M159.942 48.976C160.019 48.402 160.019 47.8196 159.942 47.2457V46.5865C159.804 46.1266 159.616 45.6843 159.382 45.2682C159.278 45.0308 159.144 44.8091 158.982 44.609L158.182 43.5378L157.543 43.0435L156.583 42.3019L84.6092 1.1039C83.3935 0.380721 82.0144 0 80.6106 0C79.2068 0 77.8278 0.380721 76.6121 1.1039L4.63831 42.3019L3.91857 42.8787L3.03889 43.5378C2.80657 43.8073 2.61758 44.1132 2.4791 44.4442C2.22323 44.6806 2.00706 44.9591 1.83933 45.2682C1.63169 45.6297 1.4704 46.0174 1.35951 46.4217C1.31476 46.6944 1.31476 46.9729 1.35951 47.2457C0.80967 47.7341 0.349227 48.3202 0 48.976V114.893C0.0103787 116.361 0.401357 117.8 1.13248 119.06C1.8636 120.32 2.9083 121.356 4.15848 122.061L76.1323 163.259C76.4627 163.458 76.8108 163.623 77.1719 163.754H77.9716C79.2854 164.082 80.6564 164.082 81.9701 163.754H82.7698L83.8894 163.259L155.863 122.061C157.098 121.346 158.127 120.305 158.844 119.046C159.56 117.786 159.939 116.353 159.942 114.893V48.976ZM79.9709 80.8632L24.4711 48.976L46.543 36.4518L101.163 68.5862L79.9709 80.8632ZM79.9709 17.2535L135.471 48.976L117.557 59.2755L62.9371 27.0586L79.9709 17.2535ZM15.9942 62.9833L71.9738 95.2825V142.083L15.9942 110.031V62.9833ZM87.9679 142.083V95.2825L111.959 81.44V106.653L127.953 98.4136V72.2116L143.948 63.0657V110.031L87.9679 142.083Z" fill="white"/>
<path d="M167.905 166.691C189.953 166.691 207.826 149.456 207.826 128.195C207.826 106.934 189.953 89.6992 167.905 89.6992C145.857 89.6992 127.984 106.934 127.984 128.195C127.984 149.456 145.857 166.691 167.905 166.691Z" fill="white" stroke="black" stroke-width="5" stroke-linecap="round" stroke-linejoin="round"/>
<path d="M179.881 143.593L170.244 134.301C168.747 132.857 167.905 130.899 167.905 128.857V105.098" fill="white"/>
<path d="M179.881 143.593L170.244 134.301C168.747 132.857 167.905 130.899 167.905 128.857V105.098" stroke="black" stroke-width="5" stroke-linecap="round" stroke-linejoin="round"/>
</svg>
