<svg width="261" height="193" viewBox="0 0 261 193" fill="none" xmlns="http://www.w3.org/2000/svg">
<path d="M4 26.7437C4 20.7117 6.35551 14.9268 10.5483 10.6615C14.7412 6.39621 20.4279 4 26.3574 4H205.217C211.146 4 216.833 6.39621 221.026 10.6615C225.219 14.9268 227.574 20.7117 227.574 26.7437V140.462C227.574 146.494 225.219 152.279 221.026 156.545C216.833 160.81 211.146 163.206 205.217 163.206H26.3574C20.4279 163.206 14.7412 160.81 10.5483 156.545C6.35551 152.279 4 146.494 4 140.462V26.7437Z" stroke="white" stroke-width="7" stroke-linecap="round" stroke-linejoin="round"/>
<path d="M115.787 117.719C134.309 117.719 149.323 102.444 149.323 83.6029C149.323 64.7614 134.309 49.4873 115.787 49.4873C97.2656 49.4873 82.251 64.7614 82.251 83.6029C82.251 102.444 97.2656 117.719 115.787 117.719Z" stroke="white" stroke-width="7" stroke-linecap="round" stroke-linejoin="round"/>
<path d="M182.859 163.206C182.859 151.142 187.57 139.572 195.956 131.042C204.342 122.511 215.715 117.719 227.574 117.719M4 49.4875C15.8591 49.4875 27.2325 44.6951 35.6182 36.1645C44.0038 27.6339 48.7148 16.064 48.7148 4L4 49.4875Z" stroke="white" stroke-width="7" stroke-linecap="round" stroke-linejoin="round"/>
<path d="M220 192C242.091 192 260 174.763 260 153.5C260 132.237 242.091 115 220 115C197.909 115 180 132.237 180 153.5C180 174.763 197.909 192 220 192Z" fill="white" stroke="black" stroke-width="2" stroke-linecap="round" stroke-linejoin="round"/>
<path d="M232 168.9L222.344 159.606C220.844 158.162 220.001 156.204 220 154.162V130.4" stroke="black" stroke-width="2" stroke-linecap="round" stroke-linejoin="round"/>
</svg>
