<svg viewBox="0 0 284 274" fill="none" xmlns="http://www.w3.org/2000/svg">
<path d="M22.8112 79.8393C22.8112 73.7894 25.2145 67.9873 29.4925 63.7093C33.7704 59.4314 39.5725 57.0281 45.6225 57.0281H228.112C234.162 57.0281 239.964 59.4314 244.242 63.7093C248.52 67.9873 250.924 73.7894 250.924 79.8393V193.896C250.924 199.945 248.52 205.748 244.242 210.026C239.964 214.303 234.162 216.707 228.112 216.707H45.6225C39.5725 216.707 33.7704 214.303 29.4925 210.026C25.2145 205.748 22.8112 199.945 22.8112 193.896V79.8393Z" stroke="white" stroke-width="7" stroke-linecap="round" stroke-linejoin="round"/>
<path d="M136.867 171.084C155.765 171.084 171.084 155.765 171.084 136.867C171.084 117.97 155.765 102.651 136.867 102.651C117.97 102.651 102.651 117.97 102.651 136.867C102.651 155.765 117.97 171.084 136.867 171.084Z" stroke="white" stroke-width="7" stroke-linecap="round" stroke-linejoin="round"/>
<path d="M205.301 216.707C205.301 204.607 210.108 193.003 218.664 184.447C227.22 175.891 238.824 171.084 250.924 171.084M22.8112 102.651C34.9111 102.651 46.5153 97.8439 55.0712 89.2881C63.6271 80.7322 68.4337 69.1279 68.4337 57.0281L22.8112 102.651Z" stroke="white" stroke-width="7" stroke-linecap="round" stroke-linejoin="round"/>
<path d="M236.096 242.084C258.143 242.084 276.016 224.85 276.016 203.59C276.016 182.331 258.143 165.096 236.096 165.096C214.049 165.096 196.177 182.331 196.177 203.59C196.177 224.85 214.049 242.084 236.096 242.084Z" fill="white" stroke="black" stroke-width="5" stroke-linecap="round" stroke-linejoin="round"/>
<path d="M248.072 218.988L238.436 209.695C236.938 208.252 236.097 206.294 236.096 204.252V180.494" fill="white"/>
<path d="M248.072 218.988L238.436 209.695C236.938 208.252 236.097 206.294 236.096 204.252V180.494" stroke="black" stroke-width="5" stroke-linecap="round" stroke-linejoin="round"/>
</svg>
