<svg viewBox="0 0 79 80" fill="none" xmlns="http://www.w3.org/2000/svg">
<path d="M78.9712 23.8907C79.0096 23.6107 79.0096 23.3267 78.9712 23.0467V22.7251C78.9034 22.5008 78.8106 22.285 78.6948 22.082C78.6436 21.9663 78.5772 21.8581 78.4974 21.7605L78.1025 21.238L77.7867 20.9968L77.3128 20.6351L41.7758 0.538486C41.1755 0.185717 40.4946 0 39.8015 0C39.1084 0 38.4275 0.185717 37.8272 0.538486L2.29017 20.6351L1.9348 20.9164L1.50045 21.238C1.38574 21.3694 1.29243 21.5187 1.22405 21.6801C1.09772 21.7954 0.990988 21.9312 0.908169 22.082C0.805645 22.2584 0.72601 22.4475 0.671256 22.6447C0.649165 22.7778 0.649165 22.9136 0.671256 23.0467C0.399775 23.2849 0.172431 23.5708 0 23.8907V56.0453C0.0051245 56.7615 0.19817 57.4633 0.559161 58.0781C0.920152 58.6929 1.43597 59.1983 2.05325 59.5421L37.5903 79.6387C37.7535 79.7355 37.9253 79.8163 38.1036 79.8798H38.4985C39.1471 80.0401 39.8241 80.0401 40.4728 79.8798H40.8676L41.4204 79.6387L76.9575 59.5421C77.5674 59.1931 78.0752 58.6854 78.4291 58.071C78.7829 57.4566 78.97 56.7575 78.9712 56.0453V23.8907ZM39.4856 39.4455L12.0826 23.8907L22.9806 17.7814L49.9493 33.4567L39.4856 39.4455ZM39.4856 8.41635L66.8886 23.8907L58.0439 28.9149L31.0752 13.1993L39.4856 8.41635ZM7.89712 30.7236L35.5371 46.4793V69.309L7.89712 53.6739V30.7236ZM43.4342 69.309V46.4793L55.2799 39.7268V52.0259L63.177 48.0066V35.2252L71.0741 30.7638V53.6739L43.4342 69.309Z" fill="white"/>
</svg>
