<svg viewBox="0 0 89 80" fill="none" xmlns="http://www.w3.org/2000/svg">
<path d="M80.7209 23.8907C80.7597 23.6107 80.7597 23.3267 80.7209 23.0467V22.7251C80.6521 22.5008 80.5582 22.285 80.441 22.082C80.3891 21.9663 80.3218 21.8581 80.241 21.7605L79.8412 21.238L79.5213 20.9968L79.0415 20.6351L43.0546 0.538486C42.4467 0.185717 41.7572 0 41.0553 0C40.3534 0 39.6639 0.185717 39.056 0.538486L3.06915 20.6351L2.70929 20.9164L2.26945 21.238C2.15328 21.3694 2.05879 21.5187 1.98955 21.6801C1.86162 21.7954 1.75353 21.9312 1.66966 22.082C1.56584 22.2584 1.4852 22.4475 1.42975 22.6447C1.40738 22.7778 1.40738 22.9136 1.42975 23.0467C1.15484 23.2849 0.924613 23.5708 0.75 23.8907V56.0453C0.755189 56.7615 0.950679 57.4633 1.31624 58.0781C1.6818 58.6929 2.20415 59.1983 2.82924 59.5421L38.8161 79.6387C38.9814 79.7355 39.1554 79.8163 39.3359 79.8798H39.7358C40.3927 80.0401 41.0782 80.0401 41.7351 79.8798H42.1349L42.6947 79.6387L78.6816 59.5421C79.2992 59.1931 79.8135 58.6854 80.1719 58.071C80.5302 57.4566 80.7196 56.7575 80.7209 56.0453V23.8907ZM40.7354 39.4455L12.9855 23.8907L24.0215 17.7814L51.3316 33.4567L40.7354 39.4455ZM40.7354 8.41635L68.4853 23.8907L59.5286 28.9149L32.2185 13.1993L40.7354 8.41635ZM8.74709 30.7236L36.7369 46.4793V69.309L8.74709 53.6739V30.7236ZM44.734 69.309V46.4793L56.7296 39.7268V52.0259L64.7267 48.0066V35.2252L72.7238 30.7638V53.6739L44.734 69.309Z" fill="white"/>
<path d="M75.75 72.2656C81.1434 72.2656 85.5156 67.8934 85.5156 62.5C85.5156 57.1066 81.1434 52.7344 75.75 52.7344C70.3566 52.7344 65.9844 57.1066 65.9844 62.5C65.9844 67.8934 70.3566 72.2656 75.75 72.2656Z" fill="white" stroke="black" stroke-width="1.5" stroke-linecap="round" stroke-linejoin="round"/>
<path d="M79.2656 58.9844L72.2344 66.0156L79.2656 58.9844ZM72.2344 58.9844L79.2656 66.0156L72.2344 58.9844Z" fill="white"/>
<path d="M72.2344 58.9844L79.2656 66.0156M79.2656 58.9844L72.2344 66.0156L79.2656 58.9844Z" stroke="black" stroke-width="1.5" stroke-linecap="round" stroke-linejoin="round"/>
</svg>
