<svg width="37" height="37" viewBox="0 0 37 37" fill="none" xmlns="http://www.w3.org/2000/svg">
<path d="M12.3334 12.3334L12.3334 10.7917C12.3334 7.38596 15.0943 4.62504 18.5 4.62504V4.62504C21.9058 4.62504 24.6667 7.38595 24.6667 10.7917L24.6667 12.3334" stroke="white" stroke-width="2" stroke-linecap="round"/>
<path fill-rule="evenodd" clip-rule="evenodd" d="M5.21079 11.3774C4.625 11.9632 4.625 12.906 4.625 14.7916V25.9166C4.625 29.6879 4.625 31.5735 5.79657 32.7451C6.96815 33.9166 8.85376 33.9166 12.625 33.9166H24.375C28.1462 33.9166 30.0319 33.9166 31.2034 32.7451C32.375 31.5735 32.375 29.6879 32.375 25.9166V14.7916C32.375 12.906 32.375 11.9632 31.7892 11.3774C31.2034 10.7916 30.2606 10.7916 28.375 10.7916H8.625C6.73938 10.7916 5.79657 10.7916 5.21079 11.3774ZM14.875 18.5C14.875 17.9477 14.4273 17.5 13.875 17.5C13.3227 17.5 12.875 17.9477 12.875 18.5V21.5833C12.875 22.1356 13.3227 22.5833 13.875 22.5833C14.4273 22.5833 14.875 22.1356 14.875 21.5833V18.5ZM24.125 18.5C24.125 17.9477 23.6773 17.5 23.125 17.5C22.5727 17.5 22.125 17.9477 22.125 18.5V21.5833C22.125 22.1356 22.5727 22.5833 23.125 22.5833C23.6773 22.5833 24.125 22.1356 24.125 21.5833V18.5Z" fill="white"/>
</svg>
