<svg width="40" height="40" viewBox="0 0 40 40" fill="none" xmlns="http://www.w3.org/2000/svg">
<path d="M32.2098 9.62952L31.4614 10.1295L31.4614 10.1295L32.2098 9.62952ZM32.2098 27.0371L31.4614 26.5371L31.4614 26.5371L32.2098 27.0371ZM30.3704 28.8765L30.8704 29.6248L30.8704 29.6248L30.3704 28.8765ZM23.3333 29.9977L23.3294 29.0977C22.8338 29.0999 22.4333 29.5022 22.4333 29.9977H23.3333ZM23.3333 30L24.1383 30.4025C24.2008 30.2775 24.2333 30.1397 24.2333 30H23.3333ZM19.1055 34.8778L18.3005 35.2803L18.3005 35.2803L19.1055 34.8778ZM16.6666 30H15.7666C15.7666 30.1397 15.7992 30.2775 15.8616 30.4025L16.6666 30ZM16.6666 29.9977H17.5666C17.5666 29.5022 17.1661 29.0999 16.6706 29.0977L16.6666 29.9977ZM9.62949 28.8765L9.12948 29.6248L9.12948 29.6248L9.62949 28.8765ZM7.79016 27.0371L7.04184 27.5371L7.04184 27.5371L7.79016 27.0371ZM7.79016 9.62952L7.04184 9.12951L7.04184 9.12951L7.79016 9.62952ZM9.62949 7.79019L9.12948 7.04187L9.12948 7.04187L9.62949 7.79019ZM30.3704 7.79019L30.8704 7.04187L30.8704 7.04187L30.3704 7.79019ZM34.2333 18.3333C34.2333 16.0113 34.2344 14.202 34.0882 12.7653C33.9405 11.3136 33.6351 10.1428 32.9581 9.12951L31.4614 10.1295C31.9079 10.7978 32.1643 11.6381 32.2975 12.9475C32.4322 14.2719 32.4333 15.9738 32.4333 18.3333H34.2333ZM32.9581 27.5371C33.6351 26.5239 33.9405 25.3531 34.0882 23.9013C34.2344 22.4646 34.2333 20.6554 34.2333 18.3333H32.4333C32.4333 20.6928 32.4322 22.3947 32.2975 23.7192C32.1643 25.0286 31.9079 25.8689 31.4614 26.5371L32.9581 27.5371ZM30.8704 29.6248C31.6966 29.0727 32.406 28.3633 32.9581 27.5371L31.4614 26.5371C31.0407 27.1668 30.5001 27.7074 29.8704 28.1281L30.8704 29.6248ZM23.3372 30.8977C25.131 30.8899 26.5794 30.8558 27.7728 30.6908C28.9806 30.5238 29.9854 30.2161 30.8704 29.6248L29.8704 28.1281C29.2865 28.5183 28.5708 28.7634 27.5263 28.9077C26.4674 29.0541 25.1317 29.0899 23.3294 29.0977L23.3372 30.8977ZM24.2333 30V29.9977H22.4333V30H24.2333ZM21.6994 35.2803L24.1383 30.4025L22.5283 29.5975L20.0894 34.4753L21.6994 35.2803ZM18.3005 35.2803C19.0007 36.6807 20.9992 36.6807 21.6994 35.2803L20.0894 34.4753C20.076 34.502 20.0631 34.5118 20.054 34.5172C20.0417 34.5244 20.023 34.5306 20 34.5306C19.9769 34.5306 19.9582 34.5244 19.9459 34.5172C19.9368 34.5118 19.9239 34.502 19.9105 34.4753L18.3005 35.2803ZM15.8616 30.4025L18.3005 35.2803L19.9105 34.4753L17.4716 29.5975L15.8616 30.4025ZM15.7666 29.9977V30H17.5666V29.9977H15.7666ZM9.12948 29.6248C10.0145 30.2161 11.0193 30.5238 12.2271 30.6908C13.4205 30.8558 14.8689 30.8899 16.6627 30.8977L16.6706 29.0977C14.8682 29.0899 13.5325 29.0541 12.4736 28.9077C11.4291 28.7634 10.7134 28.5183 10.1295 28.1281L9.12948 29.6248ZM7.04184 27.5371C7.59389 28.3633 8.30327 29.0727 9.12948 29.6248L10.1295 28.1281C9.49984 27.7074 8.95921 27.1668 8.53848 26.5371L7.04184 27.5371ZM5.76663 18.3333C5.76663 20.6554 5.76554 22.4646 5.91169 23.9013C6.05937 25.3531 6.36479 26.5239 7.04184 27.5371L8.53848 26.5371C8.092 25.8689 7.83565 25.0286 7.70245 23.7192C7.56771 22.3947 7.56663 20.6928 7.56663 18.3333H5.76663ZM7.04184 9.12951C6.36479 10.1428 6.05937 11.3136 5.91169 12.7653C5.76554 14.202 5.76663 16.0113 5.76663 18.3333H7.56663C7.56663 15.9738 7.56771 14.2719 7.70245 12.9475C7.83565 11.6381 8.092 10.7978 8.53848 10.1295L7.04184 9.12951ZM9.12948 7.04187C8.30327 7.59392 7.59389 8.3033 7.04184 9.12951L8.53848 10.1295C8.95921 9.49987 9.49984 8.95924 10.1295 8.53852L9.12948 7.04187ZM18.3333 5.76666C16.0113 5.76666 14.202 5.76557 12.7653 5.91172C11.3136 6.0594 10.1428 6.36482 9.12948 7.04187L10.1295 8.53852C10.7977 8.09203 11.638 7.83568 12.9475 7.70248C14.2719 7.56774 15.9738 7.56666 18.3333 7.56666V5.76666ZM21.6666 5.76666H18.3333V7.56666H21.6666V5.76666ZM30.8704 7.04187C29.8572 6.36482 28.6864 6.0594 27.2346 5.91172C25.7979 5.76557 23.9887 5.76666 21.6666 5.76666V7.56666C24.0261 7.56666 25.728 7.56774 27.0525 7.70248C28.3619 7.83568 29.2022 8.09203 29.8704 8.53852L30.8704 7.04187ZM32.9581 9.12951C32.406 8.3033 31.6966 7.59392 30.8704 7.04187L29.8704 8.53852C30.5001 8.95924 31.0407 9.49987 31.4614 10.1295L32.9581 9.12951Z" fill="white"/>
<circle cx="26.6667" cy="18.3333" r="1.66667" fill="white"/>
<circle cx="20" cy="18.3333" r="1.66667" fill="white"/>
<circle cx="13.3333" cy="18.3333" r="1.66667" fill="white"/>
</svg>
