<svg width="43" height="43" className='icon-home' viewBox="0 0 40 40" fill="none" xmlns="http://www.w3.org/2000/svg">
    <path fill-rule="evenodd" clip-rule="evenodd" d="M8.79081 16.877C8.33337 17.8715 8.33337 19.003 8.33337 21.2659V28.3332C8.33337 31.4759 8.33337 33.0473 9.30968 34.0236C10.2686 34.9825 11.8015 34.9996 14.8334 34.9999V26.6667C14.8334 25.1939 16.0273 24 17.5 24H22.5C23.9728 24 25.1667 25.1939 25.1667 26.6667V34.9999C28.1986 34.9996 29.7315 34.9825 30.6904 34.0236C31.6667 33.0473 31.6667 31.4759 31.6667 28.3332V21.2659C31.6667 19.003 31.6667 17.8715 31.2093 16.877C30.7518 15.8824 29.8928 15.146 28.1746 13.6733L26.508 12.2448C23.4024 9.58289 21.8497 8.25195 20 8.25195C18.1504 8.25195 16.5977 9.58289 13.4921 12.2448L13.4921 12.2448L11.8255 13.6733C10.1073 15.146 9.24825 15.8824 8.79081 16.877ZM23.1667 34.9999V26.6667C23.1667 26.2985 22.8682 26 22.5 26H17.5C17.1319 26 16.8334 26.2985 16.8334 26.6667V34.9999H23.1667Z" fill="white"/>
    </svg>
