<svg width="43" height="43" className='icon-home' viewBox="0 0 40 40" fill="none" xmlns="http://www.w3.org/2000/svg">
<path d="M8.33337 21.266C8.33337 19.0031 8.33337 17.8716 8.79081 16.8771C9.24825 15.8825 10.1073 15.1462 11.8255 13.6735L13.4921 12.2449C16.5977 9.58302 18.1504 8.25208 20 8.25208C21.8497 8.25208 23.4024 9.58302 26.508 12.2449L28.1746 13.6735C29.8928 15.1462 30.7518 15.8825 31.2093 16.8771C31.6667 17.8716 31.6667 19.0031 31.6667 21.266V28.3334C31.6667 31.476 31.6667 33.0474 30.6904 34.0237C29.7141 35 28.1427 35 25 35H15C11.8573 35 10.286 35 9.30968 34.0237C8.33337 33.0474 8.33337 31.476 8.33337 28.3334V21.266Z" stroke="white" stroke-width="2"/>
<path d="M24.1667 35V26C24.1667 25.4477 23.719 25 23.1667 25H16.8334C16.2811 25 15.8334 25.4477 15.8334 26V35" stroke="white" stroke-width="2" stroke-linecap="round" stroke-linejoin="round"/>
</svg>
