<svg viewBox="0 0 24 24" fill="none" xmlns="http://www.w3.org/2000/svg">
<path d="M4.92893 19.0711C6.32746 20.4696 8.10929 21.422 10.0491 21.8079C11.9889 22.1937 13.9996 21.9957 15.8268 21.2388C17.6541 20.4819 19.2159 19.2002 20.3147 17.5557C21.4135 15.9112 22 13.9778 22 12C22 10.0222 21.4135 8.08879 20.3147 6.4443C19.2159 4.79981 17.6541 3.51808 15.8268 2.76121C13.9996 2.00433 11.9889 1.8063 10.0491 2.19215C8.10929 2.578 6.32746 3.53041 4.92893 4.92893" stroke="white" stroke-width="1.3"/>
<path d="M15 12L15.5076 11.5939L15.8324 12L15.5076 12.4061L15 12ZM3 12.65C2.64101 12.65 2.35 12.359 2.35 12C2.35 11.641 2.64101 11.35 3 11.35V12.65ZM11.5076 6.59395L15.5076 11.5939L14.4924 12.4061L10.4924 7.40605L11.5076 6.59395ZM15.5076 12.4061L11.5076 17.4061L10.4924 16.5939L14.4924 11.5939L15.5076 12.4061ZM15 12.65H3V11.35H15V12.65Z" fill="white"/>
</svg>
