<svg width="40" height="40" viewBox="0 0 40 40" fill="none" xmlns="http://www.w3.org/2000/svg">
<path d="M24.1667 35V26C24.1667 25.4477 23.719 25 23.1667 25H16.8334C16.2811 25 15.8334 25.4477 15.8334 26V35" stroke="white" stroke-width="2" stroke-linecap="round" stroke-linejoin="round"/>
<path d="M8.33337 18.3334V31C8.33337 32.8857 8.33337 33.8285 8.91916 34.4143C9.50495 35 10.4478 35 12.3334 35H27.6667C29.5523 35 30.4951 35 31.0809 34.4143C31.6667 33.8285 31.6667 32.8857 31.6667 31V18.3334" stroke="white" stroke-width="2"/>
<path d="M7.9546 6.51493C8.13649 5.78737 8.22744 5.42359 8.4987 5.21179C8.76996 5 9.14493 5 9.89489 5H30.1051C30.8551 5 31.23 5 31.5013 5.21179C31.7726 5.42359 31.8635 5.78737 32.0454 6.51493L34.3787 15.8483C34.6647 16.9922 34.8077 17.5642 34.5074 17.9487C34.2072 18.3333 33.6176 18.3333 32.4384 18.3333H31.7218C30.1035 18.3333 29.2943 18.3333 28.7348 17.8594C28.1753 17.3854 28.0423 16.5873 27.7763 14.9909L27.6973 14.517C27.6222 14.0667 27.5847 13.8416 27.5 13.8416C27.4153 13.8416 27.3778 14.0667 27.3027 14.517L27.1462 15.4564C26.9554 16.601 26.86 17.1733 26.5373 17.5788C26.3742 17.7837 26.1726 17.9545 25.9437 18.0817C25.4907 18.3333 24.9104 18.3333 23.75 18.3333V18.3333C22.5896 18.3333 22.0093 18.3333 21.5563 18.0817C21.3274 17.9545 21.1258 17.7837 20.9627 17.5788C20.64 17.1733 20.5446 16.601 20.3538 15.4564L20.1973 14.517C20.1222 14.0667 20.0847 13.8416 20 13.8416C19.9153 13.8416 19.8778 14.0667 19.8027 14.517L19.6462 15.4564C19.4554 16.601 19.36 17.1733 19.0373 17.5788C18.8742 17.7837 18.6726 17.9545 18.4437 18.0817C17.9907 18.3333 17.4104 18.3333 16.25 18.3333V18.3333C15.0896 18.3333 14.5093 18.3333 14.0563 18.0817C13.8274 17.9545 13.6258 17.7837 13.4627 17.5788C13.14 17.1733 13.0446 16.601 12.8538 15.4564L12.6973 14.517C12.6222 14.0667 12.5847 13.8416 12.5 13.8416C12.4153 13.8416 12.3778 14.0667 12.3027 14.517L12.2237 14.9909C11.9577 16.5873 11.8247 17.3854 11.2652 17.8594C10.7057 18.3333 9.8965 18.3333 8.27816 18.3333H7.56155C6.38242 18.3333 5.79285 18.3333 5.49257 17.9487C5.19229 17.5642 5.33529 16.9922 5.62127 15.8483L7.9546 6.51493Z" stroke="white" stroke-width="2"/>
</svg>
