<svg viewBox="0 0 40 40" fill="none" xmlns="http://www.w3.org/2000/svg">
        <path d="M17.1788 12.0332C18.2489 9.36542 18.784 8.03151 19.6533 7.84664C19.8818 7.79803 20.1181 7.79803 20.3467 7.84664C21.216 8.03151 21.751 9.36542 22.8211 12.0332C23.4297 13.5504 23.734 14.3089 24.3033 14.8249C24.463 14.9696 24.6364 15.0985 24.821 15.2097C25.479 15.6064 26.3005 15.6799 27.9435 15.8271C30.7248 16.0761 32.1154 16.2007 32.5401 16.9936C32.628 17.1578 32.6878 17.3356 32.717 17.5196C32.8578 18.408 31.8354 19.3381 29.7908 21.1983L29.223 21.7149C28.2671 22.5845 27.7891 23.0194 27.5127 23.562C27.3468 23.8876 27.2357 24.2382 27.1835 24.5998C27.0967 25.2026 27.2367 25.8334 27.5166 27.095L27.6166 27.5458C28.1186 29.8084 28.3696 30.9396 28.0563 31.4957C27.7748 31.9952 27.2564 32.3149 26.6837 32.3423C26.0462 32.3727 25.1479 31.6407 23.3513 30.1768C22.1676 29.2122 21.5757 28.73 20.9187 28.5416C20.3183 28.3694 19.6816 28.3694 19.0812 28.5416C18.4242 28.73 17.8323 29.2122 16.6487 30.1768C14.852 31.6407 13.9537 32.3727 13.3162 32.3423C12.7435 32.3149 12.2251 31.9952 11.9437 31.4957C11.6303 30.9396 11.8813 29.8084 12.3833 27.5458L12.4833 27.095C12.7633 25.8334 12.9032 25.2026 12.8164 24.5998C12.7643 24.2382 12.6531 23.8876 12.4872 23.562C12.2108 23.0194 11.7328 22.5845 10.7769 21.7149L10.2091 21.1983C8.16449 19.3381 7.14217 18.408 7.28295 17.5196C7.31211 17.3356 7.37191 17.1578 7.45986 16.9936C7.88453 16.2007 9.27516 16.0761 12.0564 15.8271C13.6994 15.6799 14.5209 15.6064 15.179 15.2097C15.3635 15.0985 15.5369 14.9696 15.6966 14.8249C16.2659 14.3089 16.5702 13.5504 17.1788 12.0332Z" fill="white" stroke="white" stroke-width="2"/>
        </svg>
