<svg width="40" height="40" viewBox="0 0 40 40" fill="none" xmlns="http://www.w3.org/2000/svg">
<path d="M16.9063 11.0459C18.2173 7.7776 18.8728 6.14343 20 6.14343C21.1272 6.14343 21.7827 7.7776 23.0937 11.0459L23.1548 11.1981C23.8954 13.0446 24.2657 13.9678 25.0205 14.5289C25.7752 15.0901 26.766 15.1788 28.7475 15.3563L29.1058 15.3884C32.3488 15.6788 33.9703 15.824 34.3173 16.8557C34.6642 17.8873 33.46 18.9829 31.0516 21.174L30.2478 21.9053C29.0286 23.0145 28.419 23.5691 28.1349 24.296C28.0819 24.4316 28.0379 24.5705 28.003 24.7118C27.8163 25.4696 27.9948 26.2742 28.3518 27.8833L28.4629 28.3841C29.119 31.3414 29.4471 32.82 28.8743 33.4578C28.6603 33.6961 28.3821 33.8677 28.0731 33.952C27.246 34.1776 26.0719 33.2209 23.7237 31.3074C22.1817 30.051 21.4107 29.4227 20.5256 29.2814C20.1774 29.2258 19.8226 29.2258 19.4744 29.2814C18.5892 29.4227 17.8183 30.051 16.2763 31.3074C13.9281 33.2209 12.7539 34.1776 11.9269 33.952C11.6179 33.8677 11.3397 33.6961 11.1257 33.4578C10.5529 32.82 10.8809 31.3414 11.5371 28.3841L11.6482 27.8833C12.0052 26.2742 12.1837 25.4696 11.997 24.7118C11.9621 24.5705 11.9181 24.4316 11.8651 24.296C11.5809 23.5691 10.9713 23.0145 9.75217 21.9053L8.94837 21.174C6.53996 18.9829 5.33576 17.8873 5.68272 16.8557C6.02969 15.824 7.6512 15.6788 10.8942 15.3884L11.2525 15.3563C13.234 15.1788 14.2247 15.0901 14.9795 14.5289C15.7342 13.9678 16.1046 13.0446 16.8452 11.1981L16.9063 11.0459Z" stroke="white" stroke-width="2"/>
</svg>
