<svg width="24" height="26" viewBox="0 0 24 26" fill="none" xmlns="http://www.w3.org/2000/svg">
<path fill-rule="evenodd" clip-rule="evenodd" d="M17.36 5.883C17.36 9.03212 14.7692 13.0105 11.5733 13.0105C8.37744 13.0105 5.78666 9.03212 5.78666 5.883C5.78666 2.73389 8.37744 0.18103 11.5733 0.18103C14.7692 0.18103 17.36 2.73389 17.36 5.883ZM15.624 5.883C15.624 7.04257 15.127 8.47356 14.2718 9.60721C13.4038 10.758 12.4137 11.2999 11.5733 11.2999C10.733 11.2999 9.74286 10.758 8.87481 9.60721C8.01967 8.47356 7.52266 7.04257 7.52266 5.883C7.52266 3.67862 9.33621 1.89162 11.5733 1.89162C13.8105 1.89162 15.624 3.67862 15.624 5.883Z" fill="#6A6A6A"/>
<path fill-rule="evenodd" clip-rule="evenodd" d="M0 24.3367C0 19.1836 4.23946 15.0062 9.46909 15.0062H13.8271C18.9741 15.0062 23.1467 19.1176 23.1467 24.1893C23.1467 24.786 22.6558 25.2697 22.0502 25.2697H0.946909C0.423946 25.2697 0 24.852 0 24.3367ZM9.46909 16.7168H13.8271C17.8 16.7168 21.0593 19.7271 21.3841 23.5591H1.77576C2.17105 19.716 5.46461 16.7168 9.46909 16.7168Z" fill="#6A6A6A"/>
</svg>
