<svg id="visual" viewBox="0 0 1920 961" width="1920" height="961" xmlns="http://www.w3.org/2000/svg" xmlns:xlink="http://www.w3.org/1999/xlink" version="1.1"><rect x="0" y="0" width="1920" height="961" fill="#00072B"></rect><defs><linearGradient id="grad1_0" x1="49.9%" y1="0%" x2="100%" y2="100%"><stop offset="10.04162330905307%" stop-color="#022c90" stop-opacity="1"></stop><stop offset="89.95837669094693%" stop-color="#022c90" stop-opacity="1"></stop></linearGradient></defs><defs><linearGradient id="grad1_1" x1="49.9%" y1="0%" x2="100%" y2="100%"><stop offset="10.04162330905307%" stop-color="#022c90" stop-opacity="1"></stop><stop offset="89.95837669094693%" stop-color="#002881" stop-opacity="1"></stop></linearGradient></defs><defs><linearGradient id="grad1_2" x1="49.9%" y1="0%" x2="100%" y2="100%"><stop offset="10.04162330905307%" stop-color="#002372" stop-opacity="1"></stop><stop offset="89.95837669094693%" stop-color="#002881" stop-opacity="1"></stop></linearGradient></defs><defs><linearGradient id="grad1_3" x1="49.9%" y1="0%" x2="100%" y2="100%"><stop offset="10.04162330905307%" stop-color="#002372" stop-opacity="1"></stop><stop offset="89.95837669094693%" stop-color="#001f63" stop-opacity="1"></stop></linearGradient></defs><defs><linearGradient id="grad1_4" x1="49.9%" y1="0%" x2="100%" y2="100%"><stop offset="10.04162330905307%" stop-color="#001a55" stop-opacity="1"></stop><stop offset="89.95837669094693%" stop-color="#001f63" stop-opacity="1"></stop></linearGradient></defs><defs><linearGradient id="grad1_5" x1="49.9%" y1="0%" x2="100%" y2="100%"><stop offset="10.04162330905307%" stop-color="#001a55" stop-opacity="1"></stop><stop offset="89.95837669094693%" stop-color="#001646" stop-opacity="1"></stop></linearGradient></defs><defs><linearGradient id="grad1_6" x1="49.9%" y1="0%" x2="100%" y2="100%"><stop offset="10.04162330905307%" stop-color="#001038" stop-opacity="1"></stop><stop offset="89.95837669094693%" stop-color="#001646" stop-opacity="1"></stop></linearGradient></defs><defs><linearGradient id="grad1_7" x1="49.9%" y1="0%" x2="100%" y2="100%"><stop offset="10.04162330905307%" stop-color="#001038" stop-opacity="1"></stop><stop offset="89.95837669094693%" stop-color="#00072b" stop-opacity="1"></stop></linearGradient></defs><defs><linearGradient id="grad2_0" x1="0%" y1="0%" x2="50.1%" y2="100%"><stop offset="10.04162330905307%" stop-color="#022c90" stop-opacity="1"></stop><stop offset="89.95837669094693%" stop-color="#022c90" stop-opacity="1"></stop></linearGradient></defs><defs><linearGradient id="grad2_1" x1="0%" y1="0%" x2="50.1%" y2="100%"><stop offset="10.04162330905307%" stop-color="#002881" stop-opacity="1"></stop><stop offset="89.95837669094693%" stop-color="#022c90" stop-opacity="1"></stop></linearGradient></defs><defs><linearGradient id="grad2_2" x1="0%" y1="0%" x2="50.1%" y2="100%"><stop offset="10.04162330905307%" stop-color="#002881" stop-opacity="1"></stop><stop offset="89.95837669094693%" stop-color="#002372" stop-opacity="1"></stop></linearGradient></defs><defs><linearGradient id="grad2_3" x1="0%" y1="0%" x2="50.1%" y2="100%"><stop offset="10.04162330905307%" stop-color="#001f63" stop-opacity="1"></stop><stop offset="89.95837669094693%" stop-color="#002372" stop-opacity="1"></stop></linearGradient></defs><defs><linearGradient id="grad2_4" x1="0%" y1="0%" x2="50.1%" y2="100%"><stop offset="10.04162330905307%" stop-color="#001f63" stop-opacity="1"></stop><stop offset="89.95837669094693%" stop-color="#001a55" stop-opacity="1"></stop></linearGradient></defs><defs><linearGradient id="grad2_5" x1="0%" y1="0%" x2="50.1%" y2="100%"><stop offset="10.04162330905307%" stop-color="#001646" stop-opacity="1"></stop><stop offset="89.95837669094693%" stop-color="#001a55" stop-opacity="1"></stop></linearGradient></defs><defs><linearGradient id="grad2_6" x1="0%" y1="0%" x2="50.1%" y2="100%"><stop offset="10.04162330905307%" stop-color="#001646" stop-opacity="1"></stop><stop offset="89.95837669094693%" stop-color="#001038" stop-opacity="1"></stop></linearGradient></defs><defs><linearGradient id="grad2_7" x1="0%" y1="0%" x2="50.1%" y2="100%"><stop offset="10.04162330905307%" stop-color="#00072b" stop-opacity="1"></stop><stop offset="89.95837669094693%" stop-color="#001038" stop-opacity="1"></stop></linearGradient></defs><g transform="translate(1920, 0)"><path d="M0 672.7C-63.4 641.1 -126.7 609.4 -191.3 588.7C-255.8 568 -321.6 558.2 -385 529.9C-448.4 501.6 -509.4 454.7 -544.2 395.4C-579.1 336.1 -587.8 264.5 -604.9 196.5C-621.9 128.6 -647.3 64.3 -672.7 0L0 0Z" fill="#000c32"></path><path d="M0 588.6C-55.4 560.9 -110.9 533.2 -167.4 515.1C-223.9 497 -281.4 488.5 -336.9 463.7C-392.3 438.9 -445.7 397.8 -476.2 346C-506.7 294.1 -514.3 231.4 -529.3 172C-544.2 112.5 -566.4 56.3 -588.6 0L0 0Z" fill="#00133f"></path><path d="M0 504.5C-47.5 480.8 -95 457.1 -143.5 441.5C-191.9 426 -241.2 418.7 -288.7 397.4C-336.3 376.2 -382 341 -408.2 296.6C-434.3 252.1 -440.9 198.4 -453.7 147.4C-466.4 96.4 -485.5 48.2 -504.5 0L0 0Z" fill="#00184d"></path><path d="M0 420.4C-39.6 400.7 -79.2 380.9 -119.6 367.9C-159.9 355 -201 348.9 -240.6 331.2C-280.2 313.5 -318.4 284.2 -340.1 247.1C-361.9 210.1 -367.4 165.3 -378 122.8C-388.7 80.4 -404.6 40.2 -420.4 0L0 0Z" fill="#001d5c"></path><path d="M0 336.4C-31.7 320.5 -63.4 304.7 -95.6 294.4C-127.9 284 -160.8 279.1 -192.5 265C-224.2 250.8 -254.7 227.3 -272.1 197.7C-289.5 168.1 -293.9 132.2 -302.4 98.3C-311 64.3 -323.7 32.1 -336.3 0L0 0Z" fill="#00216b"></path><path d="M0 252.3C-23.8 240.4 -47.5 228.5 -71.7 220.8C-95.9 213 -120.6 209.3 -144.4 198.7C-168.1 188.1 -191 170.5 -204.1 148.3C-217.2 126.1 -220.4 99.2 -226.8 73.7C-233.2 48.2 -242.7 24.1 -252.3 0L0 0Z" fill="#002679"></path><path d="M0 168.2C-15.8 160.3 -31.7 152.4 -47.8 147.2C-64 142 -80.4 139.6 -96.2 132.5C-112.1 125.4 -127.3 113.7 -136.1 98.9C-144.8 84 -147 66.1 -151.2 49.1C-155.5 32.1 -161.8 16.1 -168.2 0L0 0Z" fill="#002a88"></path><path d="M0 84.1C-7.9 80.1 -15.8 76.2 -23.9 73.6C-32 71 -40.2 69.8 -48.1 66.2C-56 62.7 -63.7 56.8 -68 49.4C-72.4 42 -73.5 33.1 -75.6 24.6C-77.7 16.1 -80.9 8 -84.1 0L0 0Z" fill="#022c90"></path></g><g transform="translate(0, 961)"><path d="M0 -672.7C78.1 -676.9 156.2 -681 207.9 -639.8C259.5 -598.5 284.7 -511.9 339.2 -466.8C393.6 -421.7 477.2 -418.3 519.4 -377.4C561.6 -336.4 562.4 -258 581.1 -188.8C599.7 -119.7 636.2 -59.8 672.7 0L0 0Z" fill="#000c32"></path><path d="M0 -588.6C68.3 -592.3 136.7 -595.9 181.9 -559.8C227.1 -523.7 249.2 -447.9 296.8 -408.5C344.4 -369 417.5 -366 454.5 -330.2C491.4 -294.4 492.1 -225.7 508.5 -165.2C524.8 -104.7 556.7 -52.4 588.6 0L0 0Z" fill="#00133f"></path><path d="M0 -504.5C58.6 -507.6 117.2 -510.8 155.9 -479.8C194.7 -448.9 213.6 -383.9 254.4 -350.1C295.2 -316.3 357.9 -313.7 389.5 -283C421.2 -252.3 421.8 -193.5 435.8 -141.6C449.8 -89.7 477.2 -44.9 504.5 0L0 0Z" fill="#00184d"></path><path d="M0 -420.4C48.8 -423 97.6 -425.6 129.9 -399.9C162.2 -374.1 178 -319.9 212 -291.8C246 -263.6 298.2 -261.4 324.6 -235.8C351 -210.3 351.5 -161.2 363.2 -118C374.8 -74.8 397.6 -37.4 420.4 0L0 0Z" fill="#001d5c"></path><path d="M0 -336.3C39.1 -338.4 78.1 -340.5 103.9 -319.9C129.8 -299.3 142.4 -255.9 169.6 -233.4C196.8 -210.9 238.6 -209.2 259.7 -188.7C280.8 -168.2 281.2 -129 290.5 -94.4C299.9 -59.8 318.1 -29.9 336.4 0L0 0Z" fill="#00216b"></path><path d="M0 -252.3C29.3 -253.8 58.6 -255.4 78 -239.9C97.3 -224.4 106.8 -191.9 127.2 -175.1C147.6 -158.2 178.9 -156.9 194.8 -141.5C210.6 -126.2 210.9 -96.7 217.9 -70.8C224.9 -44.9 238.6 -22.4 252.3 0L0 0Z" fill="#002679"></path><path d="M0 -168.2C19.5 -169.2 39.1 -170.3 52 -159.9C64.9 -149.6 71.2 -128 84.8 -116.7C98.4 -105.4 119.3 -104.6 129.8 -94.3C140.4 -84.1 140.6 -64.5 145.3 -47.2C149.9 -29.9 159.1 -15 168.2 0L0 0Z" fill="#002a88"></path><path d="M0 -84.1C9.8 -84.6 19.5 -85.1 26 -80C32.4 -74.8 35.6 -64 42.4 -58.4C49.2 -52.7 59.6 -52.3 64.9 -47.2C70.2 -42.1 70.3 -32.2 72.6 -23.6C75 -15 79.5 -7.5 84.1 0L0 0Z" fill="#022c90"></path></g></svg>