<svg viewBox="0 0 40 40" fill="none" xmlns="http://www.w3.org/2000/svg">
<path d="M7.9546 6.51493C8.13649 5.78737 8.22744 5.42359 8.4987 5.21179C8.76996 5 9.14493 5 9.89489 5H30.1051C30.8551 5 31.23 5 31.5013 5.21179C31.7726 5.42359 31.8635 5.78737 32.0454 6.51493L34.3787 15.8483C34.6647 16.9922 34.8077 17.5642 34.5074 17.9487C34.2072 18.3333 33.6176 18.3333 32.4384 18.3333H31.7218C30.1035 18.3333 29.2943 18.3333 28.7348 17.8594C28.1753 17.3854 28.0423 16.5873 27.7763 14.9909L27.6973 14.517C27.6222 14.0667 27.5847 13.8416 27.5 13.8416C27.4153 13.8416 27.3778 14.0667 27.3027 14.517L27.1462 15.4564C26.9554 16.601 26.86 17.1733 26.5373 17.5788C26.3742 17.7837 26.1726 17.9545 25.9437 18.0817C25.4907 18.3333 24.9104 18.3333 23.75 18.3333C22.5896 18.3333 22.0093 18.3333 21.5563 18.0817C21.3274 17.9545 21.1258 17.7837 20.9627 17.5788C20.64 17.1733 20.5446 16.601 20.3538 15.4564L20.1973 14.517C20.1222 14.0667 20.0847 13.8416 20 13.8416C19.9153 13.8416 19.8778 14.0667 19.8027 14.517L19.6462 15.4564C19.4554 16.601 19.36 17.1733 19.0373 17.5788C18.8742 17.7837 18.6726 17.9545 18.4437 18.0817C17.9907 18.3333 17.4104 18.3333 16.25 18.3333C15.0896 18.3333 14.5093 18.3333 14.0563 18.0817C13.8274 17.9545 13.6258 17.7837 13.4627 17.5788C13.14 17.1733 13.0446 16.601 12.8538 15.4564L12.6973 14.517C12.6222 14.0667 12.5847 13.8416 12.5 13.8416C12.4153 13.8416 12.3778 14.0667 12.3027 14.517L12.2237 14.9909C11.9577 16.5873 11.8247 17.3854 11.2652 17.8594C10.7057 18.3333 9.8965 18.3333 8.27816 18.3333H7.56155C6.38242 18.3333 5.79285 18.3333 5.49257 17.9487C5.19229 17.5642 5.33529 16.9922 5.62127 15.8483L7.9546 6.51493Z" fill="white"/>
<path fill-rule="evenodd" clip-rule="evenodd" d="M8.33576 19.8333C8.33337 20.0886 8.33337 20.3656 8.33337 20.6666V34.6666C8.33337 35.6094 8.33337 36.0808 8.62627 36.3737C8.91916 36.6666 9.39057 36.6666 10.3334 36.6666H16.6667V29.3333C16.6667 28.781 17.1144 28.3333 17.6667 28.3333H22.3334C22.8857 28.3333 23.3334 28.781 23.3334 29.3333V36.6666H29.6667C30.6095 36.6666 31.0809 36.6666 31.3738 36.3737C31.6667 36.0808 31.6667 35.6094 31.6667 34.6666V20.6666C31.6667 20.3656 31.6667 20.0886 31.6643 19.8333L31.6421 19.8333C30.9018 19.8334 30.214 19.8335 29.6455 19.7625C29.015 19.6838 28.3514 19.5003 27.7653 19.0039C27.67 18.9231 27.5826 18.839 27.5021 18.7521C27.2596 19.0057 26.9799 19.2219 26.6722 19.3929C26.1916 19.6598 25.7023 19.7545 25.2477 19.7957C24.8323 19.8334 24.3382 19.8333 23.8068 19.8333H23.8068L23.75 19.8333L23.6933 19.8333H23.6933C23.1619 19.8333 22.6678 19.8334 22.2524 19.7957C21.7978 19.7545 21.3085 19.6598 20.8279 19.3929C20.521 19.2224 20.2421 19.007 20 18.7543C19.758 19.007 19.4791 19.2224 19.1722 19.3929C18.6916 19.6598 18.2023 19.7545 17.7477 19.7957C17.3323 19.8334 16.8382 19.8333 16.3068 19.8333H16.3068L16.25 19.8333L16.1933 19.8333H16.1933C15.6619 19.8333 15.1678 19.8334 14.7524 19.7957C14.2978 19.7545 13.8085 19.6598 13.3279 19.3929C13.0201 19.2219 12.7405 19.0057 12.498 18.7521C12.4175 18.839 12.3301 18.9231 12.2348 19.0039C11.6487 19.5003 10.9851 19.6838 10.3546 19.7625C9.78607 19.8335 9.09832 19.8334 8.35802 19.8333L8.33576 19.8333ZM9.77506 16.8059C9.84956 16.8004 9.91844 16.7937 9.98293 16.7856C10.1465 16.7652 10.23 16.7412 10.2687 16.7268C10.2725 16.7255 10.2758 16.7242 10.2786 16.723C10.094 16.7428 9.92701 16.7697 9.77506 16.8059ZM14.6549 16.6666C14.6913 16.7073 14.7341 16.7417 14.7817 16.7686C14.7998 16.7751 14.8652 16.7936 15.0235 16.808C15.2868 16.8319 15.6425 16.8333 16.25 16.8333C16.8576 16.8333 17.2133 16.8319 17.4766 16.808C17.6349 16.7936 17.7003 16.7751 17.7184 16.7686C17.766 16.7417 17.8088 16.7073 17.8451 16.6666H14.6549ZM22.155 16.6666C22.1913 16.7073 22.2341 16.7417 22.2817 16.7686C22.2998 16.7751 22.3652 16.7936 22.5235 16.808C22.7868 16.8319 23.1425 16.8333 23.75 16.8333C24.3576 16.8333 24.7133 16.8319 24.9766 16.808C25.1349 16.7936 25.2003 16.7751 25.2184 16.7686C25.266 16.7417 25.3088 16.7073 25.3451 16.6666H22.155ZM29.7215 16.723C29.906 16.7428 30.0731 16.7697 30.225 16.8059C30.1505 16.8004 30.0816 16.7937 30.0171 16.7856C29.8536 16.7652 29.7701 16.7412 29.7314 16.7268C29.7276 16.7255 29.7243 16.7242 29.7215 16.723ZM25.224 16.7663C25.2241 16.7664 25.2226 16.7671 25.219 16.7684C25.222 16.7669 25.2238 16.7663 25.224 16.7663ZM22.2761 16.7663C22.2763 16.7663 22.2781 16.7669 22.2811 16.7684C22.2775 16.7671 22.276 16.7664 22.2761 16.7663ZM17.724 16.7663C17.7241 16.7664 17.7226 16.7671 17.719 16.7684C17.722 16.7669 17.7238 16.7663 17.724 16.7663ZM14.7761 16.7663C14.7763 16.7663 14.7781 16.7669 14.7811 16.7684C14.7775 16.7671 14.776 16.7664 14.7761 16.7663ZM18.6667 36.6666H21.3334V30.3333H18.6667V36.6666Z" fill="white"/>
</svg>